<svg width="50" height="50" viewBox="0 0 50 50" fill="none" xmlns="http://www.w3.org/2000/svg">
<defs>
<linearGradient id="paint0_linear_2601_1101" x1="-3.30388e-07" y1="1.59011" x2="49.7862" y2="49.1708" gradientUnits="userSpaceOnUse">
<stop stop-color="#E94057"/>
<stop offset="1" stop-color="#FE8068"/>
</linearGradient>
<linearGradient id="paint1_linear_2601_1101" x1="5" y1="6.27209" x2="44.8289" y2="44.3366" gradientUnits="userSpaceOnUse">
<stop stop-color="#E94057"/>
<stop offset="1" stop-color="#FE8068"/>
</linearGradient>
</defs>
<path d="M25 1.25C25 0.559644 25.5601 -0.00325987 26.2496 0.0312374C31.0699 0.272411 35.7274 1.90479 39.6523 4.74391C43.9155 7.82771 47.0971 12.178 48.7439 17.1753C50.3908 22.1725 50.4189 27.562 48.8244 32.5762C47.2299 37.5904 44.0939 41.9737 39.8632 45.1019C35.6325 48.2301 30.5226 49.9437 25.2612 49.9986C19.9999 50.0536 14.8553 48.4472 10.5601 45.4081C6.26495 42.369 3.03811 38.0522 1.33915 33.0724C-0.22501 28.4878 -0.420722 23.5564 0.761397 18.877C0.930487 18.2077 1.63282 17.8372 2.29286 18.0395C2.9529 18.2418 3.32035 18.9403 3.15498 19.6106C2.12484 23.7858 2.31099 28.1786 3.70523 32.2652C5.2343 36.747 8.13845 40.6321 12.0041 43.3673C15.8698 46.1025 20.4999 47.5483 25.2351 47.4988C29.9703 47.4493 34.5692 45.9071 38.3769 43.0917C42.1845 40.2763 45.0069 36.3314 46.4419 31.8186C47.877 27.3058 47.8517 22.4553 46.3695 17.9577C44.8874 13.4602 42.024 9.54494 38.1871 6.76952C34.6885 4.23882 30.5433 2.77345 26.2494 2.53471C25.5601 2.49638 25 1.94036 25 1.25Z" fill="url(#paint0_linear_2601_1101)"/>
<circle cx="25" cy="25" r="20" fill="url(#paint1_linear_2601_1101)"/>
<path d="M38 23.2679C39.3333 24.0377 39.3333 25.9622 38 26.732L20 37.1244C18.6667 37.8942 17 36.9319 17 35.3923L17 14.6077C17 13.0681 18.6667 12.1058 20 12.8756L38 23.2679Z" fill="white"/>
</svg>
